<svg xmlns:xlink="http://www.w3.org/1999/xlink" xmlns="http://www.w3.org/2000/svg" viewBox="0 0 32 32" aria-hidden="true" focusable="false" role="img" class="Icon-c11n-8-73-0__sc-13llmml-0 cqBqy" width="32"  height="32" ><title>Heart</title><path stroke="none" d="M27.66 6.19a7.85 7.85 0 00-11 .13L16 7l-.65-.66a7.85 7.85 0 00-11-.13 8.23 8.23 0 00.09 11.59l.42.42L15.29 28.7a1 1 0 001.42 0l10.44-10.5.42-.42a8.23 8.23 0 00.09-11.59zm-1.42 10.06l-.52.52L16 26.55l-9.72-9.78-.52-.52A6.15 6.15 0 014 13.19a5.91 5.91 0 011.62-5.43 5.81 5.81 0 014.67-1.71 6 6 0 013.78 1.87l.5.5 1.08 1.08a.5.5 0 00.7 0l1.08-1.08.5-.5a6 6 0 013.78-1.87 5.81 5.81 0 014.67 1.71A5.91 5.91 0 0128 13.19a6.15 6.15 0 01-1.76 3.06z" fill="#006AFF"></path></svg>