<svg xmlns:xlink="http://www.w3.org/1999/xlink" xmlns="http://www.w3.org/2000/svg" viewBox="0 0 32 32" aria-hidden="true" focusable="false" role="img" class="Icon-c11n-8-73-0__sc-13llmml-0 jDPRA-d" width="32"  height="32" ><title>Type</title><g stroke="none" fill="#0D4599"><path d="M24 2H8a2 2 0 00-2 2v24a2 2 0 002 2h16a2 2 0 002-2V4a2 2 0 00-2-2zm-9 26v-5h2v5zm9 0h-5v-6.5a.5.5 0 00-.5-.5h-5a.5.5 0 00-.5.5V28H8V4h16z" fill="#0D4599"></path><rect x="11" y="13" width="4" height="4" rx=".5" fill="#0D4599"></rect><rect x="17" y="13" width="4" height="4" rx=".5" fill="#0D4599"></rect><rect x="11" y="7" width="4" height="4" rx=".5" fill="#0D4599"></rect><rect x="17" y="7" width="4" height="4" rx=".5" fill="#0D4599"></rect></g></svg>